HIERARCHY
ROOT Hips
{
     OFFSET 1.88212 96.90440 -13.34250
     CHANNELS 6 Xposition Yposition Zposition Zrotation Xrotation Yrotation
     JOINT Spine
     {
          OFFSET 0.00000 11.89050 0.00000
          CHANNELS 3 Zrotation Xrotation Yrotation
          JOINT Spine1
          {
               OFFSET -0.00000 25.65740 0.12766
               CHANNELS 3 Zrotation Xrotation Yrotation
               JOINT HEad
               {
                    OFFSET 0.00000 8.73416 0.01134
                    CHANNELS 3 Zrotation Xrotation Yrotation
                    End Site
                    {
                         OFFSET -0.29000 12.77420 2.51395
                    }
               }
               JOINT LeftShoulder1
               {
                    OFFSET 8.99000 -0.36225 -0.22000
                    CHANNELS 3 Zrotation Xrotation Yrotation
                    JOINT LeftArm
                    {
                         OFFSET 10.28270 -0.00338 0.32212
                         CHANNELS 3 Zrotation Xrotation Yrotation
                         JOINT LeftForeArm
                         {
                              OFFSET 32.76690 0.09914 -1.42434
                              CHANNELS 3 Zrotation Xrotation Yrotation
                              JOINT LeftHand
                              {
                                   OFFSET 27.56430 0.08536 1.02216
                                   CHANNELS 3 Zrotation Xrotation Yrotation
                                   End Site
                                   {
                                        OFFSET 16.74430 -0.60000 1.50291
                                   }
                              }
                         }
                    }
               }
               JOINT RightShoulder
               {
                    OFFSET -8.99000 -0.36225 -0.22000
                    CHANNELS 3 Zrotation Xrotation Yrotation
                    JOINT RightArm
                    {
                         OFFSET -10.28270 -0.00338 0.32212
                         CHANNELS 3 Zrotation Xrotation Yrotation
                         JOINT RightForeArm
                         {
                              OFFSET -32.89710 0.09914 -1.42434
                              CHANNELS 3 Zrotation Xrotation Yrotation
                              JOINT RightHand
                              {
                                   OFFSET -27.49210 0.08536 1.02216
                                   CHANNELS 3 Zrotation Xrotation Yrotation
                                   End Site
                                   {
                                        OFFSET -16.63120 -0.60000 1.50291
                                   }
                              }
                         }
                    }
               }
          }
     }
     JOINT LeftUpLeg
     {
          OFFSET 8.94580 -8.66707 0.10165
          CHANNELS 3 Zrotation Xrotation Yrotation
          JOINT LeftLeg
          {
               OFFSET 0.00000 -44.42270 1.37270
               CHANNELS 3 Zrotation Xrotation Yrotation
               JOINT LeftFoot
               {
                    OFFSET -0.25355 -42.09240 -1.46059
                    CHANNELS 3 Zrotation Xrotation Yrotation
                    JOINT LeftToes
                    {
                         OFFSET -0.04000 -4.41509 8.49910
                         CHANNELS 3 Zrotation Xrotation Yrotation
                         End Site
                         {
                              OFFSET 0.08000 -0.04745 9.77979
                         }
                    }
               }
          }
     }
     JOINT RightUpLeg
     {
          OFFSET -8.94580 -8.66707 0.10165
          CHANNELS 3 Zrotation Xrotation Yrotation
          JOINT RightLeg
          {
               OFFSET 0.00000 -44.42270 1.37270
               CHANNELS 3 Zrotation Xrotation Yrotation
               JOINT RightFoot
               {
                    OFFSET 0.25355 -42.09240 -1.46059
                    CHANNELS 3 Zrotation Xrotation Yrotation
                    JOINT RightToes
                    {
                         OFFSET 0.04000 -4.41509 8.49910
                         CHANNELS 3 Zrotation Xrotation Yrotation
                         End Site
                         {
                              OFFSET -0.08000 -0.13745 9.77979
                         }
                    }
               }
          }
     }
}
MOTION
Frames: 15
Frame Time: 0.01667
41.49392 91.25326 -19.61023 6.37916 8.18095 152.69292 -0.53571 14.24711 -5.67937 -0.03206 0.03491 0.08710 12.04713 12.88899 -26.51985 -6.53692 8.11590 18.81912 -125.14619 -50.00685 -114.10851 -71.03555 49.42691 -53.57355 17.11650 6.22725 -20.61245 -16.89415 4.00852 23.01738 10.22841 -63.07986 -40.45831 0.20610 15.43518 74.02885 38.86052 24.75463 37.46556 -0.30690 -15.99449 -20.57335 -9.88186 5.31071 33.96462 21.68289 -0.00345 -0.00195 -16.85533 9.03369 -70.76245 -24.55300 16.76875 17.41007 50.00534 34.35640 -26.15161 -17.91339 0.02317 -0.00860 9.60918 -41.71347 16.72336 
41.69872 91.23763 -19.52061 6.31147 8.54222 153.40976 -1.57286 16.19492 -0.07512 -0.03489 0.03574 0.07228 12.22429 9.32576 -29.59422 -4.88361 7.27292 14.32379 -126.74568 -50.60872 -114.73399 -69.24030 50.22445 -56.02091 19.31216 4.28712 -23.15847 -17.21673 3.50098 19.13141 24.55820 -62.37384 -20.79341 -2.00600 15.88163 77.99549 23.08590 28.60777 39.02646 -0.71847 -15.49064 -19.80933 -9.55526 5.39073 32.69898 24.26129 -0.00372 -0.00072 -19.66088 9.12566 -70.88024 -24.13254 16.80822 17.33582 49.51859 33.41523 -26.39653 -17.74564 0.02310 -0.00807 8.66016 -39.43979 14.30860 
41.85471 91.28317 -19.40635 6.31243 9.00261 154.01411 -2.96055 18.36420 6.33610 -0.03067 0.03264 0.05773 12.36534 5.51474 -33.40115 -3.02761 6.17501 9.01441 -127.66180 -50.71355 -114.79578 -68.82877 50.94712 -57.53702 15.15780 2.02961 -21.36731 -23.31925 0.86611 24.50562 27.73239 -64.91178 -20.14626 -3.71538 16.73491 82.01939 38.51674 27.14729 30.65703 -1.09015 -14.92421 -19.03170 -9.33213 5.48571 31.58546 26.78057 -0.00374 0.00026 -22.30010 9.11420 -71.03430 -23.81203 16.90063 17.36048 49.26562 32.62040 -27.19504 -17.58701 0.02196 -0.00635 8.56234 -39.87527 15.14450 
41.98853 91.37095 -19.24733 6.37673 9.55285 154.50128 -4.79276 20.69991 13.47814 -0.03120 0.03870 0.05166 12.38676 1.43982 -37.83782 -1.15984 4.69325 3.31498 -127.89511 -50.30112 -114.36624 -69.18247 51.51842 -58.40661 17.15148 1.87836 -22.46539 -23.11501 1.20304 18.57338 42.57933 -61.80842 2.17493 -4.80536 17.80528 85.02285 26.16729 20.09417 35.53297 -1.39196 -14.31638 -18.23069 -9.19077 5.61731 30.62001 29.17287 -0.00355 0.00090 -24.77348 9.02906 -71.19188 -23.59151 17.05474 17.47203 49.15322 31.94076 -28.35897 -17.49172 0.02044 -0.00379 8.49612 -39.08730 15.18344 
42.13398 91.48111 -19.04023 6.48346 10.17151 154.90239 -6.57721 22.55801 19.85825 -0.00468 -0.01315 -0.04877 11.91194 -1.86090 -41.71869 0.22044 3.55937 -1.32692 -127.65417 -49.42764 -113.61921 -69.95191 52.01043 -58.65915 15.04992 1.46483 -21.24930 -22.95338 1.73188 13.66703 53.05262 -56.80478 20.78773 -5.15399 19.01348 87.35081 33.94242 25.63706 28.01008 -1.61244 -13.69061 -17.42412 -9.10548 5.79771 29.79001 31.37365 -0.00320 0.00130 -27.05913 8.88182 -71.36127 -23.45291 17.26748 17.63453 49.15653 31.35606 -29.72225 -17.44109 0.01861 -0.00046 8.79593 -38.93377 16.31976 
42.31812 91.59406 -18.79690 6.61060 10.82781 155.26291 -7.96269 23.67859 25.10510 -0.00053 -0.01247 -0.05184 11.10363 -4.14625 -45.09346 1.16069 3.10929 -4.91704 -127.09464 -48.19514 -112.69771 -70.90894 52.35891 -58.43567 16.47713 1.99995 -21.65878 -22.72581 2.67040 9.56643 59.41419 -50.60342 35.77421 -4.55018 19.72403 89.47934 29.28605 14.34113 30.78166 -1.75130 -13.07542 -16.64107 -9.05220 6.03502 29.07787 33.33317 -0.00269 0.00144 -29.13652 8.67893 -71.55043 -23.37361 17.54292 17.80994 49.23705 30.84638 -31.10758 -17.48766 0.01663 0.00312 9.28803 -38.45240 17.50138 
42.55647 91.69419 -18.53412 6.73675 11.49336 155.63167 -8.90191 24.25854 29.17890 0.00152 -0.00882 -0.04742 10.14180 -5.51837 -47.82156 1.78650 3.29491 -7.44282 -126.37527 -46.73893 -111.70876 -71.91672 52.58450 -57.80561 15.36251 2.34642 -20.75951 -22.25252 3.87546 6.40902 63.07500 -43.90584 48.14083 -3.39848 20.25027 91.99347 27.86589 20.00246 26.74498 -1.82397 -12.49319 -15.91239 -9.01069 6.33240 28.46221 35.02160 -0.00205 0.00137 -30.98516 8.42829 -71.77632 -23.33546 17.88542 17.96455 49.38050 30.40432 -32.36789 -17.61070 0.01535 0.00629 9.99937 -38.05672 19.18404 
42.85533 91.77429 -18.27227 6.84376 12.14369 156.04573 -9.41457 24.45789 32.12084 0.00236 -0.00332 -0.03963 9.15856 -6.15424 -49.84766 2.18814 3.99414 -9.00244 -125.60721 -45.26171 -110.75203 -72.85608 52.63123 -56.97835 16.29002 3.18042 -20.89742 -21.64218 5.18477 4.38658 65.48503 -37.22496 59.07783 -1.79061 20.68114 94.35214 28.70352 10.53616 26.23192 -1.85365 -11.95856 -15.25877 -8.96747 6.68812 27.92070 36.42873 -0.00128 0.00115 -32.59476 8.15392 -72.05205 -23.32734 18.29030 18.07553 49.57137 30.02992 -33.39808 -17.79581 0.01503 0.00852 10.80836 -37.47196 21.07194 
43.21545 91.83348 -18.03576 6.91733 12.75556 156.52304 -9.56009 24.40446 34.02315 0.00502 0.00395 -0.02963 8.21949 -6.22892 -51.14227 2.42731 5.07222 -9.75037 -124.87580 -43.95628 -109.89677 -73.65491 52.52151 -56.10755 15.66492 3.74657 -20.27712 -20.87515 6.53046 3.57886 67.70448 -30.74346 69.22610 0.28852 21.41831 95.86769 20.69179 13.42266 23.29894 -1.86237 -11.48055 -14.68899 -8.91809 7.09427 27.43428 37.56063 -0.00041 0.00081 -33.96080 7.88290 -72.38684 -23.34389 18.74216 18.13150 49.79785 29.72425 -34.14879 -17.99222 0.01572 0.00950 11.65301 -36.78636 23.21059 
43.63364 91.87617 -17.85152 6.94800 13.30485 157.06226 -9.41936 24.19627 35.00140 0.00953 0.01376 -0.01948 7.34985 -5.90554 -51.70261 2.53710 6.39706 -9.87236 -124.25170 -42.99984 -109.21960 -74.26105 52.24828 -55.35482 16.21355 4.48886 -20.38437 -19.95911 7.87308 3.80410 70.69377 -24.58136 78.47464 3.41268 22.34710 95.95821 28.58489 12.10646 22.65279 -1.86414 -11.06417 -14.20354 -8.86712 7.53644 26.99064 38.43457 0.00051 0.00040 -35.08422 7.62683 -72.77827 -23.38342 19.21873 18.13084 50.04216 29.48154 -34.62075 -18.17169 0.01684 0.00925 12.42459 -35.96746 25.40052 
44.10268 91.91060 -17.74397 6.93419 13.76839 157.64655 -9.08090 23.89998 35.17585 0.01261 0.02145 -0.01128 6.56139 -5.31760 -51.55471 2.51537 7.86119 -9.51362 -123.75142 -42.47922 -108.72855 -74.69345 51.88195 -54.78110 15.87146 4.85925 -20.07522 -18.99720 9.18907 4.65400 75.74458 -19.37681 85.70661 3.94196 25.32958 93.99210 27.20005 14.90976 5.02693 -1.86105 -10.71003 -13.79827 -8.82563 7.99598 26.58527 39.07354 0.00138 -0.00009 -35.97062 7.37558 -73.21078 -23.46077 19.69151 18.08437 50.23409 29.30291 -34.83560 -18.32810 0.01770 0.00732 16.75670 -28.08267 44.86018 
44.60118 91.94171 -17.72537 6.88654 14.13140 158.24815 -8.62840 23.55786 34.65688 0.01160 0.02471 -0.00666 5.86876 -4.56735 -50.74339 2.39340 9.36894 -8.82664 -123.42485 -42.40530 -108.43010 -74.96072 51.49186 -54.40962 16.23228 5.24333 -20.30180 -17.80431 10.48530 5.66372 78.41257 -16.82400 89.20824 6.42853 22.85641 88.87348 34.42427 16.58989 9.43537 -1.84603 -10.41404 -13.46589 -8.80627 8.45496 26.22096 39.50380 0.00209 -0.00066 -36.62931 7.11259 -73.66035 -23.57362 20.14174 18.00603 50.39426 29.16158 -34.87835 -18.38602 0.01852 0.00568 15.28481 -31.62310 36.35294 
45.08761 91.97357 -17.79213 6.82823 14.38964 158.83246 -8.14508 23.19498 33.54895 0.00346 0.02491 -0.00456 5.30694 -3.73423 -49.32929 2.20323 10.84299 -7.95293 -123.28675 -42.69305 -108.29098 -75.05994 51.20108 -54.19001 16.09771 5.24979 -20.31318 -16.78628 11.68076 6.57629 83.19393 -17.18929 88.75446 7.41363 21.97596 84.94947 27.32136 14.97403 -6.23294 -1.80993 -10.17235 -13.19592 -8.81783 8.89914 25.90620 39.75451 0.00256 -0.00133 -37.06762 6.83236 -74.10366 -23.69804 20.55845 17.90975 50.57865 29.01066 -34.86629 -18.43994 0.01921 0.00448 16.03127 -29.40167 41.24458 
45.51611 92.01823 -17.90152 6.78855 14.56089 159.36182 -8.36645 23.84550 31.65522 -0.00498 0.11747 -0.04946 4.93300 -4.10183 -46.67581 1.80814 10.98325 -6.24320 -123.27304 -43.16405 -108.19012 -75.02938 51.12868 -54.09341 16.36535 5.19523 -20.65057 -16.01159 11.35024 7.37697 88.37561 -19.64147 86.02916 7.03819 22.44363 82.64967 38.64052 21.56966 2.88887 -1.74646 -9.97980 -12.97336 -8.86507 9.31906 25.65273 39.85119 0.00287 -0.00212 -37.28336 6.54436 -74.52235 -23.84270 20.92390 17.82541 50.72451 28.85779 -34.87576 -18.56899 0.01927 0.00184 15.56695 -30.11623 39.33532 
45.86640 92.07306 -18.00350 6.78120 14.72891 159.85655 -8.70260 24.74450 29.50487 -0.00569 0.03415 -0.02126 4.63332 -4.55648 -43.77753 1.36998 11.02116 -4.34893 -123.27398 -43.61513 -108.04510 -74.98167 51.16652 -54.02513 16.54881 5.05519 -20.92382 -15.53146 10.86421 8.05700 93.64185 -22.28838 83.35932 6.04773 23.07680 80.78785 40.79948 24.40613 8.02368 -1.68015 -9.76438 -12.76212 -8.88766 9.73001 25.41870 39.78542 0.00288 -0.00269 -37.32037 6.25005 -74.92713 -23.99430 21.26157 17.76782 50.86978 28.70999 -34.92517 -18.66553 0.00681 0.00028 15.20124 -30.33574 38.29710 
